                         =!DK GROUP HD BLURAY RELEAESEES!=

=====================================================================================

Ghost Rider Spirit Of Vengeance(2011)BDRip 1080p[Hindi-Tamil-Eng(Dts)]6Ch.Ac3 By !!!dip(Team-GPSOFT)

=====================================================================================

Storyline:

Johnny Blaze, a man who made a deal with the Devil who called himself Roarke at the time,
is on the run trying to make sure no-one is harmed by his alter ego, The Ghost Rider.
He is approached by a Monk named Moreau who tells him that he can help be him free of the Rider,
but first, he needs Johnny's help to protect a boy, whom Roarke has plans for.


Cast:


Nicolas Cage............Johnny Blaze / Ghost Rider
Violante Placido........Nadya
Ciarán Hinds............Roarke
Idris Elba..............Moreau
Johnny Whitworth........Ray Carrigan
Fergus Riordan..........Danny
Spencer Wilding.........Grannik
Sorin Tofan.............Kurdish
Jacek Koman.............Terrokov
Anthony Head............Benedict
Cristian Iacob..........Vasil
Christopher Lambert.....Methodius
Jai Stefan..............Krakchev
Vincent Regan...........Toma Nikasevic
Ionut Cristian Lefter...Young Johnny Blaze


Video Specifications:

Video
ID                               : 1
Duration                         : 1h 31mn
Bit rate                         : 3 000 Kbps
Width                            : 1 920 pixels
Height                           : 800 pixels
Frame rate mode                  : Variable
Frame rate                       : 25.000 fps
Team : DK Group HD Bluray Releases


Audio Specifications:

Audio #1
ID                               : 2
Format                           : DTS
Codec ID                         : A_DTS
Duration                         : 1h 31mn
Bit rate mode                    : Constant
Bit rate                         : 1 510 Kbps
Channel(s)                       : 6 channels
Channel positions                : Front: L C R, Side: L R, LFE
Sampling rate                    : 48.0 KHz
Title                            : Dts
Language                         : English

Audio #2
ID                               : 3
Format                           : AC-3
Duration                         : 1h 31mn
Bit rate                         : 448 Kbps
Channel(s)                       : 6 channels
Channel positions                : Front: L C R, Side: L R, LFE
Sampling rate                    : 48.0 KHz
Stream size                      : 294 MiB (8%)
Title                            : 6CH.AC3-448kbps
Language                         : Hindi

Audio #3
ID                               : 4
Format                           : AC-3
Codec ID                         : A_AC3
Duration                         : 1h 31mn
Bit rate                         : 448 Kbps
Channel(s)                       : 6 channels
Channel positions                : Front: L C R, Side: L R, LFE
Sampling rate                    : 48.0 KHz
Stream size                      : 294 MiB (8%)
Title                            : 6CH.AC3-448kbps
Language                         : Tamil

Subtitle Language                : English



SAMPLE IMAGE:
   
http://www.shotpix.com/images/07223184115943398107.jpg
 
http://www.shotpix.com/images/76017833740916798615.jpg
 
http://www.shotpix.com/images/27708878497907717782.jpg
 
http://www.shotpix.com/images/45374331032082758993.jpg
 
http://www.shotpix.com/images/07271170108449446064.jpg


NOTE:--

HINDI-TAMIL AUDIO 448KBPS 6CH ORG. DVD VIDEO SAMPLE IS AVAILABLE CHECK THE TORRENT: